<svg width="25" height="24" viewBox="0 0 25 24" fill="none" xmlns="http://www.w3.org/2000/svg">
<path d="M2.5 9.65359L11.5033 2.45095C12.2548 1.84972 13.3227 1.84972 14.0742 2.45095L23.0775 9.65359" stroke="#0D6EFD" stroke-width="1.5" stroke-linecap="round" stroke-linejoin="round"/>
<path d="M10.1936 3.53108L6.07805 6.87492C5.33083 7.48204 4.95722 7.7856 4.75748 8.20523C4.55775 8.62486 4.55775 9.10625 4.55775 10.069V13.769C4.55775 17.6491 4.55775 19.5892 5.76315 20.7946C6.96857 22 8.90862 22 12.7888 22C16.6689 22 18.609 22 19.8143 20.7946C21.0198 19.5892 21.0198 17.6491 21.0198 13.769V10.069C21.0198 9.10625 21.0198 8.62486 20.8201 8.20523C20.6203 7.7856 20.2467 7.48204 19.4995 6.87492L15.384 3.53108C14.1409 2.52107 13.5194 2.01607 12.7888 2.01607C12.0582 2.01607 11.4366 2.52107 10.1936 3.53108Z" stroke="#0D6EFD" stroke-width="1.5"/>
<path d="M10.4736 16.0841H15.1036" stroke="#0D6EFD" stroke-width="1.5" stroke-linecap="round"/>
</svg>
